<?xml version="1.0" encoding="utf-8"?>
<!-- Generator: Adobe Illustrator 16.0.3, SVG Export Plug-In . SVG Version: 6.00 Build 0)  -->
<!DOCTYPE svg PUBLIC "-//W3C//DTD SVG 1.1//EN" "http://www.w3.org/Graphics/SVG/1.1/DTD/svg11.dtd">
<svg version="1.1" id="Lager_1" xmlns="http://www.w3.org/2000/svg" xmlns:xlink="http://www.w3.org/1999/xlink" x="0px" y="0px"
	 width="441.973px" height="318.107px" viewBox="0 0 441.973 318.107" style="enable-background:new 0 0 441.973 318.107;"
	 xml:space="preserve">
<g>
	<path d="M309.301,130.313c0-4.997,0-130.313,0-130.313h-61.799v25.695H220.27V0h-29.048v25.695h-27.3V0H133.74
		c0,0,0,127.688,0,130.313s-1.313,15.563,6.938,34.688s23.13,30.012,32.125,35.833c12.75,8.25,48.666,16.563,48.666,16.563
		s36.023-8.313,48.834-16.563c9.007-5.801,23.846-16.692,32.061-35.833C309.6,148.139,309.301,131.882,309.301,130.313z
		 M254.256,124.021c0,34.989-17.98,50.054-48.596,50.054c-30.615,0-48.596-15.065-48.596-50.054V87.087
		c0-34.989,17.98-50.054,48.596-50.054c30.616,0,48.596,15.064,48.596,50.054V124.021z"/>
</g>
<path style="fill-rule:evenodd;clip-rule:evenodd;" d="M205.47,60.825c10.868,0,19.665,8.798,19.665,19.65v49.53
	c0,10.853-8.798,19.65-19.65,19.65c-10.882,0-19.68-8.798-19.68-19.65v-49.53c0-10.852,8.797-19.65,19.65-19.65H205.47z"/>
<g>
	<path d="M43.194,96.51c1.383-0.083,2.614,0.857,2.701,2.293c0.083,1.383-1.074,2.574-2.403,2.654
		c-1.383,0.083-2.518-1.023-2.598-2.354C40.811,97.721,41.811,96.593,43.194,96.51z M43.817,106.884
		c1.383-0.083,2.614,0.857,2.701,2.293c0.083,1.383-1.074,2.574-2.404,2.654c-1.383,0.083-2.518-1.023-2.597-2.354
		C41.434,108.095,42.434,106.967,43.817,106.884z M19.1,90.269c9.417-0.565,18.881,5.006,19.431,14.157s-8.18,15.814-17.597,16.38
		s-18.988-5-19.537-14.15C0.848,97.505,9.684,90.834,19.1,90.269z M20.517,114.744c11.012-0.661,17.231-2.903,16.791-10.245
		c-0.441-7.341-6.883-8.823-17.896-8.162C8.452,96.995,2.18,99.24,2.621,106.582C3.062,113.923,9.557,115.402,20.517,114.744z"/>
	<path d="M4.426,135.183l1.191-0.289l0.967,3.988l32.216-7.814l-0.967-3.988l1.191-0.289l3.706,15.279
		c2.412,9.945-2.455,12.715-4.786,13.281c-6.785,1.646-9.524-3.997-11.12-8.765l-0.104,0.025c-0.057,6.32-1.252,10.888-9.549,12.407
		c-2.523,0.448-4.779,1.324-5.021,2.589c-0.435,1.147,1.149,2.728,2.279,3.728l-0.839,0.804c-1.884-0.872-3.082-2.708-3.46-4.042
		c-0.944-3.665,0.522-6.214,2.793-7.478c0.87-0.485,4.989-1.813,8.009-2.93c2.319-0.837,6.091-2.245,4.508-8.771l-0.754-3.107
		l-16.885,4.095l0.992,4.092l-1.191,0.289L4.426,135.183z M25.88,139.521l0.678,2.797c1.382,5.697,2.715,9.158,9.811,7.437
		c5.024-1.219,6.05-3.771,4.844-8.743l-1.193-4.92L25.88,139.521z"/>
	<path d="M16.252,177.8l1.107-0.526l2.013,4.236l29.943-14.226l-2.013-4.236l1.107-0.526l11.596,24.407l-7.847,3.728l-0.503-1.059
		c5.34-3.54,4.933-7.005,2.852-11.386l-2.973-6.258l-13.864,6.587c2.31,4.862,3.09,6.379,8.513,4.629l0.503,1.059l-12.179,5.786
		l-0.503-1.059c5.014-2.736,4.679-5.055,2.463-9.844l-14.875,7.067l2.767,5.825c3.019,6.354,4.795,8.107,12.515,5.974l0.595,1.251
		l-9.299,3.651L16.252,177.8z"/>
	<path d="M35.83,215.753l0.985-0.73l2.442,3.297l26.637-19.731l-2.442-3.297l0.985-0.729l8.216,11.091
		c6.25,8.437,3.29,13.215,0.635,15.182c-4.24,3.141-9.033,0.788-12.031-2.363l-0.085,0.063c3.608,6.214,1.594,11.553-1.061,13.52
		c-3.255,2.411-9.244,3.995-16.096-5.255L35.83,215.753z M42.335,222.475L45,226.072c3.68,4.968,6.238,4.93,11.634,0.933
		c5.439-4.029,4.532-7.402,0.725-12.542l-1.491-2.013L42.335,222.475z M56.853,211.721l2.728,3.683
		c3.172,4.283,5.742,4.17,10.281,0.808c3.983-2.95,4.757-5.845,1.584-10.127l-2.474-3.34L56.853,211.721z"/>
	<path d="M61.953,248.901l0.826-0.906l3.033,2.765l22.333-24.497l-3.033-2.765l0.826-0.906l11.619,10.592
		c7.562,6.894,5.078,11.913,3.461,13.685c-4.704,5.16-10.13,2.015-14.12-1.045l-0.072,0.079c3.488,5.271,5.052,9.726-0.976,15.625
		c-1.842,1.783-3.221,3.771-2.714,4.955c0.282,1.194,2.479,1.618,3.974,1.815l-0.246,1.136c-2.049,0.331-4.069-0.521-5.128-1.415
		c-2.833-2.51-3.043-5.442-1.868-7.76c0.449-0.889,3.121-4.294,5-6.909c1.455-1.991,3.793-5.268-1.169-9.792l-2.363-2.154
		l-11.706,12.839l3.112,2.837l-0.826,0.906L61.953,248.901z M82.162,240.497l2.127,1.939c4.332,3.95,7.373,6.073,12.292,0.677
		c3.483-3.82,2.906-6.51-0.875-9.957l-3.741-3.411L82.162,240.497z"/>
	<path d="M105.485,263.358c4.613-8.229,14.416-13.18,22.412-8.698c7.996,4.483,8.885,15.43,4.272,23.658
		c-4.613,8.228-14.468,13.273-22.464,8.791C101.709,282.625,100.872,271.586,105.485,263.358z M126.843,275.393
		c5.395-9.623,6.869-16.067,0.454-19.664s-11.144,1.023-16.539,10.646c-5.369,9.576-6.87,16.067-0.455,19.664
		C116.72,289.636,121.474,284.97,126.843,275.393z"/>
	<path d="M174.376,275.15l-0.302,1.188l-4.029-1.023l-6.509,25.621c-0.302,1.188-0.789,7.002,5.461,8.59
		c7.749,1.968,10.082-3.103,11.748-9.663l5.209-20.507l-3.978-1.011l0.302-1.188l9.35,2.375l-0.302,1.188l-3.978-1.01l-5.616,22.108
		c-2.06,8.109-6.608,11.078-14.409,9.097c-6.663-1.692-10.019-6.449-8.549-12.234l6.259-24.64l-3.977-1.01l0.302-1.188
		L174.376,275.15z"/>
	<path d="M202.762,282.023l-4.154-0.169l0.05-1.225l10.384,0.423l14.075,26.389l0.106,0.004l0.999-24.549l-4.153-0.169l0.05-1.225
		l9.852,0.401l-0.05,1.225l-4.101-0.167l-1.43,35.146l-1.384-0.056l-18.583-34.894l-0.106-0.004l-1.305,32.057l4.101,0.167
		l-0.05,1.225l-9.852-0.401l0.05-1.225l4.154,0.169L202.762,282.023z"/>
	<path d="M255.553,314.504l-14.232,1.72l-0.147-1.217l4.55-0.55l-3.977-32.909l-4.55,0.55l-0.147-1.217l14.233-1.72l0.147,1.217
		l-4.55,0.55l3.977,32.91l4.55-0.55L255.553,314.504z"/>
	<path d="M257.396,278.596l12.952-3.75l0.341,1.177l-3.993,1.156l15.996,23.056l0.102-0.03l0.847-27.931l-4.659,1.349l-0.341-1.178
		l9.727-2.816l0.341,1.178l-3.635,1.052l-1.072,36.93l-1.28,0.37l-21.248-30.468l-3.737,1.082L257.396,278.596z"/>
	<path d="M309.655,299.324l-0.562-1.09l4.169-2.148l-15.184-29.468l-4.169,2.148l-0.561-1.089l24.019-12.376l3.979,7.722
		l-1.042,0.537c-3.71-5.223-7.16-4.704-11.471-2.482l-6.159,3.173l7.03,13.644c4.785-2.465,6.277-3.294,4.353-8.658l1.042-0.537
		l6.176,11.986l-1.042,0.537c-2.896-4.923-5.203-4.514-9.918-2.144l7.543,14.639l5.732-2.954c6.253-3.222,7.948-5.054,5.566-12.7
		l1.232-0.635l3.949,9.176L309.655,299.324z"/>
	<path d="M347.249,278.545l-0.764-0.958l3.209-2.558l-20.664-25.919l-3.208,2.558l-0.764-0.958l12.293-9.8
		c8.001-6.378,12.565-3.133,14.06-1.258c4.352,5.459,0.39,10.321-3.261,13.777l0.066,0.083c5.755-2.612,10.401-3.453,15.275,3.43
		c1.47,2.1,3.215,3.775,4.464,3.461c1.224-0.089,1.989-2.192,2.42-3.637l1.083,0.422c0.003,2.076-1.157,3.935-2.207,4.841
		c-2.925,2.4-5.854,2.146-7.958,0.619c-0.807-0.584-3.748-3.76-6.033-6.028c-1.736-1.75-4.603-4.577-9.854-0.391l-2.5,1.993
		l10.83,13.585l3.292-2.625l0.764,0.958L347.249,278.545z M342.142,257.263l2.25-1.794c4.584-3.654,7.16-6.321,2.609-12.031
		c-3.222-4.042-5.969-3.897-9.97-0.708l-3.958,3.156L342.142,257.263z"/>
	<path d="M380.953,249.846l-0.492,0.561l-6.893-6.042l0.667-0.762c4.995,1.582,9.825,1.809,13.233-2.078
		c3.021-3.447,3.801-8.575,0.274-11.667c-2.365-2.073-3.938-2.46-7.886-0.463c-1.861,0.991-9.35,5.411-10.278,5.661
		c-3.48,1.06-6.733-0.162-8.978-2.129c-1.643-1.44-2.807-3.312-3.312-5.809c-0.509-2.573-0.096-5.684,2.6-8.706
		c2.048-2.295,5.062-3.43,6.366-3.705l0.173-2.542l0.492-0.561l6.252,5.48l-0.703,0.802c-4.379-1.617-8.777-1.954-11.903,1.613
		c-2.389,2.725-2.922,7.502,0.083,10.138c6.653,5.832,15.68-13.116,26.58-3.561c5.491,4.813,5.683,11.077,1.09,16.335
		c-2.344,2.684-4.536,3.961-7.62,4.164L380.953,249.846z"/>
	<path d="M410.941,210.753l-7.81,12.022l-1.028-0.667l2.497-3.844l-27.799-18.058l-2.497,3.844l-1.028-0.667l7.81-12.022
		l1.028,0.667l-2.497,3.844l27.799,18.058l2.497-3.844L410.941,210.753z"/>
	<path d="M420.383,193.388l-1.116-0.507l1.829-4.028l-30.185-13.705l-1.498,3.3c-2.093,4.61,1.132,6.66,5.518,9.763l-0.573,1.262
		l-9.124-4.786l11.347-24.992l9.52,3.913l-0.573,1.262c-4.853-1.56-9.219-1.611-11.511,3.437l-0.97,2.135l30.185,13.704l1.829-4.028
		l1.116,0.507L420.383,193.388z"/>
	<path d="M433.184,161.814l-1.194-0.275l1.052-4.57l-32.306-7.434l-1.052,4.57l-1.195-0.274l6.059-26.333l8.466,1.948l-0.263,1.143
		c-6.384-0.54-8.215,2.43-9.303,7.156l-1.554,6.752l14.958,3.442c1.207-5.246,1.538-6.919-3.8-8.914l0.263-1.143l13.14,3.023
		l-0.263,1.143c-5.629-0.967-6.806,1.059-8.042,6.189l16.049,3.693l1.446-6.285c1.578-6.855,1.272-9.332-6.104-12.451l0.311-1.351
		l9.557,2.91L433.184,161.814z"/>
	<path d="M441.535,113.235l-1.225-0.038l0.138-4.421l-33.134-1.036l-0.113,3.623c-0.158,5.061,3.607,5.711,8.849,6.889l-0.043,1.385
		l-10.263-0.907l0.857-27.434l10.293-0.052l-0.043,1.385c-5.079,0.428-9.129,2.061-9.302,7.601l-0.073,2.344l33.134,1.036
		l0.138-4.421l1.225,0.039L441.535,113.235z"/>
</g>
</svg>
